<?xml version="1.0" encoding="UTF-8" standalone="no"?><!DOCTYPE svg PUBLIC "-//W3C//DTD SVG 1.1//EN" "http://www.w3.org/Graphics/SVG/1.1/DTD/svg11.dtd"><svg width="100%" height="100%" viewBox="0 0 11113 11113" version="1.1" xmlns="http://www.w3.org/2000/svg" xmlns:xlink="http://www.w3.org/1999/xlink" xml:space="preserve" xmlns:serif="http://www.serif.com/" style="fill-rule:evenodd;clip-rule:evenodd;stroke-linejoin:round;stroke-miterlimit:2;"><path d="M5555.54,10000c2454.86,0 4444.46,-1989.58 4444.46,-4444.46c0,-2454.86 -1989.58,-4444.46 -4444.46,-4444.46c-2454.86,0 -4444.46,1989.58 -4444.46,4444.46c0,2454.86 1989.58,4444.46 4444.46,4444.46Zm-1572.92,-3300.35c354.167,486.108 927.083,800.346 1572.92,800.346c645.833,0 1218.75,-314.237 1572.92,-800.346c135.417,-185.767 395.834,-227.433 581.6,-92.017c185.763,135.417 227.43,395.834 92.013,581.6c-505.208,692.709 -1322.92,1144.1 -2246.53,1144.1c-923.609,0 -1741.32,-451.387 -2246.53,-1144.1c-135.417,-185.766 -93.75,-446.183 92.012,-581.6c185.763,-135.416 446.179,-93.75 581.596,92.017Zm-371.525,-1977.43c0,-307.292 248.263,-555.554 555.554,-555.554c307.292,-0 555.554,248.262 555.554,555.554c0,307.291 -248.262,555.558 -555.554,555.558c-307.291,0 -555.554,-248.267 -555.554,-555.558Zm3333.33,-555.554c307.292,-0 555.555,248.262 555.555,555.554c-0,307.291 -248.263,555.558 -555.555,555.558c-307.291,0 -555.558,-248.267 -555.558,-555.558c0,-307.292 248.267,-555.554 555.558,-555.554Z" style="fill:#255023;fill-rule:nonzero;"/></svg>