<?xml version="1.0" encoding="UTF-8" standalone="no"?><!DOCTYPE svg PUBLIC "-//W3C//DTD SVG 1.1//EN" "http://www.w3.org/Graphics/SVG/1.1/DTD/svg11.dtd"><svg width="100%" height="100%" viewBox="0 0 387 85" version="1.1" xmlns="http://www.w3.org/2000/svg" xmlns:xlink="http://www.w3.org/1999/xlink" xml:space="preserve" xmlns:serif="http://www.serif.com/" style="fill-rule:evenodd;clip-rule:evenodd;stroke-linecap:round;stroke-linejoin:round;stroke-miterlimit:1.5;"><rect id="Green-Logo" serif:id="Green Logo" x="0" y="0" width="386.115" height="84.5" style="fill:none;"/><clipPath id="_clip1"><rect x="0" y="0" width="386.115" height="84.5"/></clipPath><g clip-path="url(#_clip1)"><g><g transform="matrix(1,0,0,0.999819,0,0.00379738)"><g transform="matrix(47.4794,0,0,47.4794,53.3673,66.2179)"><path d="M0.146,-0c-0.013,-0 -0.024,-0.004 -0.033,-0.013c-0.009,-0.009 -0.013,-0.021 -0.013,-0.034l0,-0.687c0,-0.014 0.004,-0.025 0.013,-0.034c0.009,-0.009 0.02,-0.013 0.033,-0.013c0.015,0 0.027,0.006 0.037,0.017l0.452,0.599l-0,-0.569c-0,-0.014 0.004,-0.025 0.013,-0.034c0.009,-0.009 0.02,-0.013 0.034,-0.013c0.013,0 0.024,0.004 0.033,0.013c0.009,0.009 0.013,0.02 0.013,0.034l0,0.687c0,0.013 -0.004,0.025 -0.013,0.034c-0.009,0.009 -0.02,0.013 -0.033,0.013c-0.006,0 -0.013,-0.001 -0.02,-0.004c-0.006,-0.003 -0.012,-0.007 -0.016,-0.012l-0.453,-0.599l0,0.568c0,0.013 -0.004,0.025 -0.013,0.034c-0.009,0.009 -0.02,0.013 -0.034,0.013Z" style="fill-rule:nonzero;"/></g><g transform="matrix(47.4794,0,0,47.4794,89.1704,66.2179)"><path d="M0.323,0.004c-0.05,0 -0.094,-0.012 -0.134,-0.036c-0.039,-0.024 -0.07,-0.057 -0.093,-0.099c-0.023,-0.042 -0.034,-0.089 -0.034,-0.142c-0,-0.053 0.012,-0.101 0.036,-0.143c0.024,-0.041 0.057,-0.075 0.099,-0.099c0.042,-0.024 0.089,-0.036 0.141,-0.036c0.053,-0 0.1,0.012 0.141,0.036c0.041,0.024 0.074,0.058 0.099,0.1c0.024,0.042 0.036,0.089 0.037,0.142l-0.036,0.009c-0,0.051 -0.012,0.096 -0.034,0.137c-0.022,0.04 -0.053,0.072 -0.091,0.096c-0.039,0.024 -0.082,0.035 -0.131,0.035Zm0.015,-0.082c0.036,0 0.068,-0.008 0.096,-0.025c0.028,-0.017 0.05,-0.041 0.067,-0.07c0.016,-0.03 0.024,-0.063 0.024,-0.1c-0,-0.038 -0.008,-0.071 -0.024,-0.101c-0.017,-0.029 -0.039,-0.052 -0.067,-0.069c-0.028,-0.018 -0.06,-0.026 -0.096,-0.026c-0.035,-0 -0.067,0.008 -0.095,0.026c-0.028,0.017 -0.051,0.04 -0.067,0.069c-0.017,0.03 -0.025,0.063 -0.025,0.101c-0,0.037 0.008,0.07 0.025,0.1c0.016,0.029 0.039,0.053 0.067,0.07c0.028,0.017 0.06,0.025 0.095,0.025Zm0.23,0.079c-0.013,-0 -0.024,-0.005 -0.033,-0.013c-0.009,-0.009 -0.013,-0.02 -0.013,-0.033l-0,-0.16l0.019,-0.096l0.074,0.028l-0,0.228c-0,0.013 -0.005,0.024 -0.014,0.033c-0.008,0.008 -0.019,0.013 -0.033,0.013Z" style="fill-rule:nonzero;"/></g><g transform="matrix(47.4794,0,0,47.4794,117.742,66.2179)"><path d="M0.295,-0c-0.034,-0 -0.065,-0.008 -0.092,-0.025c-0.027,-0.017 -0.048,-0.04 -0.064,-0.069c-0.016,-0.03 -0.023,-0.063 -0.023,-0.1l-0,-0.481c-0,-0.014 0.004,-0.025 0.012,-0.033c0.009,-0.009 0.02,-0.013 0.033,-0.013c0.013,0 0.024,0.004 0.033,0.013c0.009,0.008 0.013,0.019 0.013,0.033l-0,0.481c-0,0.03 0.008,0.054 0.025,0.074c0.017,0.019 0.038,0.029 0.063,0.029l0.031,-0c0.012,-0 0.021,0.004 0.029,0.013c0.008,0.008 0.011,0.019 0.011,0.033c0,0.013 -0.005,0.024 -0.014,0.032c-0.01,0.009 -0.023,0.013 -0.038,0.013l-0.019,0Zm-0.233,-0.448c-0.012,-0 -0.022,-0.004 -0.03,-0.011c-0.008,-0.008 -0.012,-0.017 -0.012,-0.028c-0,-0.012 0.004,-0.022 0.012,-0.029c0.008,-0.007 0.018,-0.011 0.03,-0.011l0.241,0c0.012,0 0.022,0.004 0.03,0.011c0.008,0.007 0.012,0.017 0.012,0.029c-0,0.011 -0.004,0.02 -0.012,0.028c-0.008,0.007 -0.018,0.011 -0.03,0.011l-0.241,-0Z" style="fill-rule:nonzero;"/></g><g transform="matrix(47.4794,0,0,47.4794,133.286,66.2179)"><path d="M0.323,0.005c-0.046,0 -0.088,-0.009 -0.125,-0.029c-0.036,-0.02 -0.065,-0.049 -0.087,-0.087c-0.021,-0.038 -0.032,-0.084 -0.032,-0.139l0,-0.252c0,-0.013 0.005,-0.024 0.014,-0.032c0.008,-0.009 0.019,-0.014 0.032,-0.014c0.014,0 0.025,0.005 0.034,0.014c0.008,0.008 0.013,0.019 0.013,0.032l-0,0.252c-0,0.039 0.007,0.071 0.022,0.096c0.014,0.025 0.034,0.044 0.059,0.056c0.026,0.013 0.054,0.019 0.085,0.019c0.031,-0 0.058,-0.006 0.082,-0.018c0.023,-0.012 0.042,-0.028 0.057,-0.048c0.014,-0.021 0.021,-0.044 0.021,-0.069l0.06,-0c-0.001,0.041 -0.012,0.079 -0.032,0.112c-0.021,0.033 -0.049,0.059 -0.084,0.079c-0.035,0.019 -0.075,0.028 -0.119,0.028Zm0.221,-0.005c-0.014,0 -0.025,-0.004 -0.033,-0.013c-0.009,-0.009 -0.013,-0.02 -0.013,-0.033l-0,-0.456c-0,-0.013 0.004,-0.025 0.013,-0.033c0.008,-0.008 0.019,-0.013 0.033,-0.013c0.013,0 0.025,0.005 0.033,0.013c0.009,0.008 0.013,0.02 0.013,0.033l0,0.456c0,0.013 -0.004,0.024 -0.013,0.033c-0.008,0.009 -0.02,0.013 -0.033,0.013Z" style="fill-rule:nonzero;"/></g><g transform="matrix(47.4794,0,0,47.4794,162.062,66.2179)"><path d="M0.132,-0.34c0.001,-0.041 0.011,-0.077 0.031,-0.109c0.02,-0.032 0.046,-0.057 0.079,-0.076c0.032,-0.019 0.068,-0.028 0.108,-0.028c0.036,0 0.064,0.006 0.082,0.017c0.019,0.011 0.026,0.026 0.021,0.043c-0.002,0.01 -0.006,0.017 -0.012,0.021c-0.006,0.005 -0.013,0.007 -0.021,0.008c-0.008,0 -0.016,-0 -0.026,-0.002c-0.041,-0.006 -0.077,-0.005 -0.109,0.003c-0.032,0.009 -0.058,0.024 -0.076,0.045c-0.019,0.021 -0.028,0.047 -0.028,0.078l-0.049,-0Zm0.003,0.34c-0.014,-0 -0.025,-0.004 -0.033,-0.012c-0.008,-0.007 -0.012,-0.019 -0.012,-0.033l0,-0.457c0,-0.014 0.004,-0.025 0.012,-0.033c0.008,-0.008 0.019,-0.012 0.033,-0.012c0.015,0 0.027,0.004 0.034,0.012c0.008,0.007 0.012,0.019 0.012,0.033l-0,0.457c-0,0.014 -0.004,0.025 -0.012,0.033c-0.007,0.008 -0.019,0.012 -0.034,0.012Z" style="fill-rule:nonzero;"/></g><g transform="matrix(47.4794,0,0,47.4794,179.213,66.2179)"><path d="M0.344,0.004c-0.055,0 -0.104,-0.011 -0.146,-0.035c-0.043,-0.024 -0.076,-0.057 -0.1,-0.098c-0.024,-0.042 -0.036,-0.09 -0.036,-0.144c-0,-0.055 0.011,-0.103 0.034,-0.144c0.022,-0.042 0.054,-0.075 0.094,-0.099c0.04,-0.023 0.086,-0.035 0.139,-0.035c0.051,-0 0.095,0.011 0.133,0.034c0.037,0.023 0.066,0.055 0.086,0.095c0.02,0.041 0.03,0.087 0.03,0.14c0,0.012 -0.004,0.021 -0.012,0.029c-0.007,0.007 -0.018,0.011 -0.03,0.011l-0.411,0l-0,-0.074l0.412,0l-0.041,0.029c-0.001,-0.035 -0.007,-0.067 -0.021,-0.095c-0.013,-0.028 -0.032,-0.05 -0.057,-0.066c-0.025,-0.016 -0.055,-0.024 -0.089,-0.024c-0.038,0 -0.071,0.009 -0.099,0.026c-0.028,0.017 -0.049,0.041 -0.063,0.071c-0.015,0.03 -0.022,0.064 -0.022,0.102c-0,0.038 0.008,0.072 0.025,0.102c0.017,0.03 0.041,0.053 0.071,0.07c0.029,0.017 0.064,0.026 0.103,0.026c0.021,-0 0.044,-0.004 0.066,-0.012c0.023,-0.008 0.041,-0.017 0.055,-0.028c0.009,-0.007 0.019,-0.011 0.03,-0.011c0.011,-0 0.02,0.003 0.028,0.009c0.01,0.009 0.016,0.02 0.016,0.031c0.001,0.011 -0.004,0.02 -0.014,0.028c-0.022,0.018 -0.051,0.033 -0.084,0.045c-0.034,0.012 -0.067,0.017 -0.097,0.017Z" style="fill-rule:nonzero;"/></g><g transform="matrix(47.4794,0,0,47.4794,205.057,66.2179)"></g><g transform="matrix(47.4794,0,0,47.4794,215.455,66.2179)"><path d="M0.147,-0c-0.013,-0 -0.025,-0.004 -0.034,-0.013c-0.009,-0.009 -0.013,-0.021 -0.013,-0.034l0,-0.687c0,-0.014 0.004,-0.025 0.013,-0.034c0.009,-0.009 0.021,-0.013 0.034,-0.013l0.181,0c0.057,0 0.109,0.01 0.157,0.029c0.047,0.019 0.088,0.046 0.122,0.081c0.035,0.035 0.062,0.076 0.081,0.123c0.018,0.047 0.028,0.1 0.028,0.157c-0,0.057 -0.01,0.11 -0.028,0.158c-0.019,0.047 -0.046,0.089 -0.081,0.124c-0.034,0.035 -0.075,0.062 -0.123,0.081c-0.047,0.019 -0.099,0.028 -0.156,0.028l-0.181,0Zm0.047,-0.084l0.134,0c0.058,0 0.109,-0.013 0.154,-0.039c0.044,-0.027 0.079,-0.063 0.104,-0.109c0.026,-0.047 0.039,-0.099 0.039,-0.159c-0,-0.06 -0.013,-0.113 -0.039,-0.159c-0.025,-0.046 -0.06,-0.082 -0.104,-0.108c-0.045,-0.026 -0.096,-0.039 -0.154,-0.039l-0.134,-0l0,0.613Z" style="fill-rule:nonzero;"/></g><g transform="matrix(47.4794,0,0,47.4794,248.88,66.2179)"><path d="M0.338,0.004c-0.053,0 -0.101,-0.012 -0.143,-0.035c-0.041,-0.024 -0.074,-0.057 -0.098,-0.099c-0.024,-0.042 -0.035,-0.089 -0.035,-0.143c-0,-0.054 0.011,-0.102 0.035,-0.144c0.024,-0.042 0.057,-0.075 0.098,-0.099c0.042,-0.023 0.09,-0.035 0.143,-0.035c0.054,-0 0.101,0.012 0.142,0.035c0.042,0.024 0.075,0.057 0.098,0.099c0.024,0.042 0.036,0.09 0.037,0.144c-0,0.054 -0.012,0.102 -0.036,0.143c-0.024,0.042 -0.056,0.075 -0.098,0.099c-0.041,0.023 -0.089,0.035 -0.143,0.035Zm0,-0.082c0.037,0 0.069,-0.008 0.097,-0.025c0.028,-0.017 0.05,-0.04 0.066,-0.069c0.016,-0.029 0.024,-0.063 0.024,-0.101c-0,-0.038 -0.008,-0.072 -0.024,-0.101c-0.016,-0.03 -0.038,-0.053 -0.066,-0.07c-0.028,-0.017 -0.06,-0.025 -0.097,-0.025c-0.036,-0 -0.068,0.008 -0.096,0.025c-0.028,0.017 -0.051,0.04 -0.067,0.07c-0.016,0.029 -0.024,0.063 -0.024,0.101c-0,0.038 0.008,0.072 0.024,0.101c0.016,0.029 0.039,0.052 0.067,0.069c0.028,0.017 0.06,0.025 0.096,0.025Z" style="fill-rule:nonzero;"/></g><g transform="matrix(47.4794,0,0,47.4794,277.452,66.2179)"><path d="M0.338,0.004c-0.053,0 -0.101,-0.012 -0.143,-0.035c-0.041,-0.024 -0.074,-0.057 -0.098,-0.099c-0.024,-0.042 -0.035,-0.089 -0.035,-0.143c-0,-0.054 0.011,-0.102 0.035,-0.144c0.024,-0.042 0.057,-0.075 0.098,-0.099c0.042,-0.023 0.09,-0.035 0.143,-0.035c0.054,-0 0.101,0.012 0.142,0.035c0.042,0.024 0.075,0.057 0.098,0.099c0.024,0.042 0.036,0.09 0.037,0.144c-0,0.054 -0.012,0.102 -0.036,0.143c-0.024,0.042 -0.056,0.075 -0.098,0.099c-0.041,0.023 -0.089,0.035 -0.143,0.035Zm0,-0.082c0.037,0 0.069,-0.008 0.097,-0.025c0.028,-0.017 0.05,-0.04 0.066,-0.069c0.016,-0.029 0.024,-0.063 0.024,-0.101c-0,-0.038 -0.008,-0.072 -0.024,-0.101c-0.016,-0.03 -0.038,-0.053 -0.066,-0.07c-0.028,-0.017 -0.06,-0.025 -0.097,-0.025c-0.036,-0 -0.068,0.008 -0.096,0.025c-0.028,0.017 -0.051,0.04 -0.067,0.07c-0.016,0.029 -0.024,0.063 -0.024,0.101c-0,0.038 0.008,0.072 0.024,0.101c0.016,0.029 0.039,0.052 0.067,0.069c0.028,0.017 0.06,0.025 0.096,0.025Z" style="fill-rule:nonzero;"/></g><g transform="matrix(47.4794,0,0,47.4794,306.023,66.2179)"><path d="M0.338,0.004c-0.052,0 -0.099,-0.012 -0.141,-0.036c-0.041,-0.024 -0.075,-0.058 -0.099,-0.1c-0.024,-0.042 -0.036,-0.089 -0.036,-0.142c-0,-0.053 0.011,-0.1 0.034,-0.142c0.023,-0.041 0.054,-0.075 0.093,-0.099c0.04,-0.024 0.084,-0.036 0.134,-0.036c0.041,-0 0.079,0.008 0.114,0.026c0.034,0.017 0.062,0.04 0.085,0.07l-0,-0.28c-0,-0.014 0.004,-0.025 0.013,-0.033c0.009,-0.009 0.02,-0.013 0.033,-0.013c0.014,0 0.025,0.004 0.034,0.013c0.008,0.008 0.013,0.019 0.013,0.033l-0,0.463c-0.001,0.052 -0.013,0.099 -0.038,0.141c-0.024,0.042 -0.057,0.075 -0.098,0.099c-0.042,0.024 -0.089,0.036 -0.141,0.036Zm0,-0.082c0.036,0 0.068,-0.008 0.096,-0.026c0.028,-0.017 0.05,-0.04 0.067,-0.07c0.016,-0.029 0.024,-0.063 0.024,-0.1c-0,-0.037 -0.008,-0.071 -0.024,-0.1c-0.017,-0.029 -0.039,-0.053 -0.067,-0.07c-0.028,-0.017 -0.06,-0.025 -0.096,-0.025c-0.035,-0 -0.067,0.008 -0.095,0.025c-0.028,0.017 -0.051,0.041 -0.067,0.07c-0.017,0.029 -0.025,0.063 -0.025,0.1c-0,0.037 0.008,0.071 0.025,0.1c0.016,0.03 0.039,0.053 0.067,0.07c0.028,0.018 0.06,0.026 0.095,0.026Z" style="fill-rule:nonzero;"/></g><g transform="matrix(47.4794,0,0,47.4794,335.961,66.2179)"><path d="M0.215,-0c-0.028,-0 -0.053,-0.008 -0.075,-0.023c-0.022,-0.016 -0.039,-0.037 -0.052,-0.064c-0.012,-0.027 -0.018,-0.058 -0.018,-0.093l0,-0.556c0,-0.013 0.004,-0.024 0.013,-0.032c0.008,-0.009 0.019,-0.013 0.032,-0.013c0.014,0 0.025,0.004 0.033,0.013c0.009,0.008 0.013,0.019 0.013,0.032l-0,0.556c-0,0.026 0.005,0.047 0.015,0.064c0.01,0.017 0.024,0.025 0.039,0.025l0.025,0c0.013,0 0.022,0.004 0.03,0.013c0.007,0.008 0.011,0.019 0.011,0.033c-0,0.013 -0.006,0.024 -0.017,0.032c-0.011,0.009 -0.025,0.013 -0.042,0.013l-0.007,-0Z" style="fill-rule:nonzero;"/></g><g transform="matrix(47.4794,0,0,47.4794,344.938,66.2179)"><path d="M0.344,0.004c-0.055,0 -0.104,-0.011 -0.146,-0.035c-0.043,-0.024 -0.076,-0.057 -0.1,-0.098c-0.024,-0.042 -0.036,-0.09 -0.036,-0.144c-0,-0.055 0.011,-0.103 0.034,-0.144c0.022,-0.042 0.054,-0.075 0.094,-0.099c0.04,-0.023 0.086,-0.035 0.139,-0.035c0.051,-0 0.095,0.011 0.133,0.034c0.037,0.023 0.066,0.055 0.086,0.095c0.02,0.041 0.03,0.087 0.03,0.14c0,0.012 -0.004,0.021 -0.012,0.029c-0.007,0.007 -0.018,0.011 -0.03,0.011l-0.411,0l-0,-0.074l0.412,0l-0.041,0.029c-0.001,-0.035 -0.007,-0.067 -0.021,-0.095c-0.013,-0.028 -0.032,-0.05 -0.057,-0.066c-0.025,-0.016 -0.055,-0.024 -0.089,-0.024c-0.038,0 -0.071,0.009 -0.099,0.026c-0.028,0.017 -0.049,0.041 -0.063,0.071c-0.015,0.03 -0.022,0.064 -0.022,0.102c-0,0.038 0.008,0.072 0.025,0.102c0.017,0.03 0.041,0.053 0.071,0.07c0.029,0.017 0.064,0.026 0.103,0.026c0.021,-0 0.044,-0.004 0.066,-0.012c0.023,-0.008 0.041,-0.017 0.055,-0.028c0.009,-0.007 0.019,-0.011 0.03,-0.011c0.011,-0 0.02,0.003 0.028,0.009c0.01,0.009 0.016,0.02 0.016,0.031c0.001,0.011 -0.004,0.02 -0.014,0.028c-0.022,0.018 -0.051,0.033 -0.084,0.045c-0.034,0.012 -0.067,0.017 -0.097,0.017Z" style="fill-rule:nonzero;"/></g><g transform="matrix(47.4794,0,0,47.4794,374.295,66.2179)"></g></g></g><path d="M41.684,60.493c-3.428,1.251 -7.913,0.823 -12.732,-2.208c-9.328,-5.868 -8.34,-18.516 -8.269,-19.067c0.08,-0.625 0.739,-2.017 2.345,-1.81c1.54,0.198 1.886,1.587 1.789,2.328c-0,0.005 -0.715,4.003 1.137,8.619c2.362,5.886 7.682,8.845 11.995,8.79c-6.711,-6.648 -12.48,-16.029 -12.696,-25.88c-0.099,-4.497 1.097,-12.18 1.679,-12.883c0.857,-1.035 2.693,-0.801 3.081,0.755c3.162,12.699 7.572,11.438 15.457,23.334c4.375,6.601 3.144,13.222 -1.076,16.523c2.895,2.368 4.698,3.123 4.753,3.178c0.09,0.089 2.387,2.797 2.387,2.797l-3.567,-0.279c-2.014,-1.055 -4.153,-2.476 -6.283,-4.197Zm-0.274,-4.191c2.02,-1.106 3.257,-3.304 2.858,-6.612c-0.327,-2.721 -1.784,-5.888 -7.916,-12.755c-3.583,-4.012 -5.841,-6.432 -7.507,-9.979c-0.752,7.116 0.281,16.02 10.615,27.32c0.676,0.739 1.327,1.413 1.95,2.026Z" style="fill:#509f4d;"/><path d="M59.558,64.541l-5.594,-0" style="stroke:#000;stroke-width:3.33px;"/><path d="M-2.685,109.363c-3.041,1.55 -7.237,1.689 -12.028,-0.472c-10.277,-4.637 -10.801,-17.177 -10.585,-17.484c0.398,-0.565 1.069,-0.902 1.467,-1.467c0.406,0.553 1.044,0.905 1.45,1.458c0.003,0.005 -0.198,4.209 2.324,8.699c3.461,6.163 9.92,8.38 14.494,7.27c-7.085,-5.26 -15.485,-14.133 -16.664,-26.049c-0.258,-2.608 -0.372,-10.545 0.341,-11.333c0.626,-0.69 1.871,-0.574 2.265,0.457c4.656,12.191 9.153,10.72 18.313,21.362c5.101,5.928 4.601,12.489 0.779,16.054c2.335,1.499 3.905,2.168 4.279,2.332c1.3,0.572 1.08,0.836 1.946,1.969c-1.517,0.409 -1.525,0.781 -2.509,0.389c-1.299,-0.519 -3.408,-1.591 -5.872,-3.185Zm-0.243,-3.163c2.069,-1.465 3.139,-4.019 2.237,-7.538c-0.705,-2.75 -2.596,-5.784 -9.67,-11.876c-4.582,-3.945 -7.201,-6.078 -9.446,-10.143c-0.079,7.477 1.634,17.539 15.636,28.606c0.427,0.337 0.842,0.654 1.243,0.951Z" style="fill:#509f4d;"/></g></svg>