<?xml version="1.0" encoding="UTF-8" standalone="no"?><!DOCTYPE svg PUBLIC "-//W3C//DTD SVG 1.1//EN" "http://www.w3.org/Graphics/SVG/1.1/DTD/svg11.dtd"><svg width="100%" height="100%" viewBox="0 0 2667 2667" version="1.1" xmlns="http://www.w3.org/2000/svg" xmlns:xlink="http://www.w3.org/1999/xlink" xml:space="preserve" xmlns:serif="http://www.serif.com/" style="fill-rule:evenodd;clip-rule:evenodd;stroke-linejoin:round;stroke-miterlimit:2;"><path d="M418.333,1738.33c17.084,-60.833 49.167,-116.25 94.167,-161.25l896.25,-896.25c69.167,69.167 574.583,574.584 574.583,574.584l-896.25,896.25c-44.583,44.583 -100.416,77.083 -161.25,94.166l-532.5,148.334c-34.583,9.583 -72.083,-0 -97.5,-25.834c-25.416,-25.833 -35,-62.916 -25.416,-97.5l147.916,-532.5Zm231.667,-15.416c-18.333,19.583 -31.667,43.333 -38.75,69.166l-100.417,362.084l362.084,-100.417c26.666,-7.5 50.833,-21.25 70.833,-40.417l-294.167,-290.416l0.417,-0Zm1475,-608.75c-69.167,-69.167 -213.75,-213.75 -433.333,-433.334l-141.667,-141.25c110.417,-110.416 172.5,-172.5 187.083,-187.083c56.25,-56.667 132.917,-88.333 212.917,-88.333c80,-0 156.667,31.666 212.917,88.333l148.75,148.75c56.666,56.667 88.333,133.333 88.333,212.917c0,79.583 -31.667,156.666 -88.333,212.916c-14.584,14.584 -76.667,76.667 -187.084,187.084l0.417,-0Z" style="fill:#255023;fill-rule:nonzero;"/></svg>