<?xml version="1.0" encoding="UTF-8" standalone="no"?><!DOCTYPE svg PUBLIC "-//W3C//DTD SVG 1.1//EN" "http://www.w3.org/Graphics/SVG/1.1/DTD/svg11.dtd"><svg width="100%" height="100%" viewBox="0 0 84 84" version="1.1" xmlns="http://www.w3.org/2000/svg" xmlns:xlink="http://www.w3.org/1999/xlink" xml:space="preserve" xmlns:serif="http://www.serif.com/" style="fill-rule:evenodd;clip-rule:evenodd;stroke-linecap:round;stroke-miterlimit:1;"><rect id="Short-Logo" serif:id="Short Logo" x="0" y="0" width="83.469" height="83.469" style="fill:none;"/><path d="M38.211,60.493c-3.428,1.251 -7.913,0.823 -12.732,-2.208c-9.328,-5.868 -8.34,-18.516 -8.269,-19.067c0.08,-0.625 0.739,-2.017 2.345,-1.81c1.54,0.198 1.886,1.587 1.789,2.328c-0,0.005 -0.715,4.003 1.137,8.619c2.362,5.886 7.682,8.845 11.995,8.79c-6.711,-6.648 -12.48,-16.029 -12.696,-25.88c-0.099,-4.497 1.097,-12.18 1.679,-12.883c0.857,-1.035 2.693,-0.801 3.081,0.755c3.162,12.699 7.572,11.438 15.457,23.334c4.375,6.601 3.144,13.222 -1.076,16.523c2.895,2.368 4.698,3.123 4.753,3.178c0.09,0.089 2.387,2.797 2.387,2.797l-3.567,-0.279c-2.013,-1.055 -4.153,-2.476 -6.283,-4.197Zm-0.274,-4.191c2.02,-1.106 3.257,-3.304 2.859,-6.612c-0.328,-2.721 -1.785,-5.888 -7.917,-12.755c-3.583,-4.012 -5.841,-6.432 -7.507,-9.979c-0.752,7.116 0.281,16.02 10.615,27.32c0.676,0.739 1.327,1.413 1.95,2.026Z" style="fill:#509f4d;"/><path d="M50.818,64.001l5.579,-0" style="fill:none;stroke:#000;stroke-width:2.92px;"/></svg>