<?xml version="1.0" encoding="UTF-8" standalone="no"?><!DOCTYPE svg PUBLIC "-//W3C//DTD SVG 1.1//EN" "http://www.w3.org/Graphics/SVG/1.1/DTD/svg11.dtd"><svg width="100%" height="100%" viewBox="0 0 2667 2667" version="1.1" xmlns="http://www.w3.org/2000/svg" xmlns:xlink="http://www.w3.org/1999/xlink" xml:space="preserve" xmlns:serif="http://www.serif.com/" style="fill-rule:evenodd;clip-rule:evenodd;stroke-linejoin:round;stroke-miterlimit:2;"><path d="M1424.17,302.5c-51.25,-47.5 -130.417,-47.5 -181.25,0l-933.334,866.667c-40,37.5 -53.333,95.416 -33.333,146.25c20,50.833 68.75,84.583 123.75,84.583l66.667,0l-0,733.333c-0,147.084 119.583,266.667 266.666,266.667l1200,0c147.084,0 266.667,-119.583 266.667,-266.667l0,-733.333l66.667,0c55,0 104.166,-33.75 124.166,-84.583c20,-50.834 6.667,-109.167 -33.333,-146.25l-933.333,-866.667Zm-324.167,1030.83c0,-128.75 104.583,-233.333 233.333,-233.333c128.75,0 233.334,104.583 233.334,233.333c-0,128.75 -104.584,233.334 -233.334,233.334c-128.75,-0 -233.333,-104.584 -233.333,-233.334Zm-233.333,733.334c-0,-184.167 149.166,-333.334 333.333,-333.334l266.667,0c184.166,0 333.333,149.167 333.333,333.334c0,36.666 -30,66.666 -66.667,66.666l-800,0c-36.666,0 -66.666,-30 -66.666,-66.666Z" style="fill:#255023;fill-rule:nonzero;"/></svg>